<mxfile host="app.diagrams.net" modified="2020-09-27T04:03:18.509Z" agent="5.0 (Macintosh; Intel Mac OS X 10_13_6) AppleWebKit/537.36 (KHTML, like Gecko) Chrome/87.0.4259.3 Safari/537.36" etag="A4EYivh-qtMFurwu4aXB" version="13.7.5" type="github">
  <diagram name="Page-1" id="7e0a89b8-554c-2b80-1dc8-d5c74ca68de4">
    <mxGraphModel dx="1426" dy="826" grid="1" gridSize="10" guides="1" tooltips="1" connect="1" arrows="1" fold="1" page="1" pageScale="1" pageWidth="1100" pageHeight="850" background="#ffffff" math="0" shadow="0">
      <root>
        <mxCell id="0" />
        <mxCell id="1" parent="0" />
        <mxCell id="bs5Z2jcvvp319eglyJQV-10" style="edgeStyle=orthogonalEdgeStyle;rounded=0;orthogonalLoop=1;jettySize=auto;html=1;exitX=1;exitY=1;exitDx=0;exitDy=0;exitPerimeter=0;entryX=1;entryY=0.5;entryDx=0;entryDy=0;strokeWidth=2;fillColor=#0050ef;strokeColor=#001DBC;" edge="1" parent="1" source="bs5Z2jcvvp319eglyJQV-1" target="bs5Z2jcvvp319eglyJQV-9">
          <mxGeometry relative="1" as="geometry">
            <Array as="points">
              <mxPoint x="490" y="470" />
            </Array>
          </mxGeometry>
        </mxCell>
        <mxCell id="bs5Z2jcvvp319eglyJQV-36" value="token+url" style="edgeLabel;html=1;align=center;verticalAlign=middle;resizable=0;points=[];" vertex="1" connectable="0" parent="bs5Z2jcvvp319eglyJQV-10">
          <mxGeometry x="0.0197" y="3" relative="1" as="geometry">
            <mxPoint x="1" as="offset" />
          </mxGeometry>
        </mxCell>
        <mxCell id="bs5Z2jcvvp319eglyJQV-11" style="edgeStyle=orthogonalEdgeStyle;rounded=0;orthogonalLoop=1;jettySize=auto;html=1;exitX=1;exitY=0;exitDx=0;exitDy=0;exitPerimeter=0;strokeWidth=2;fillColor=#0050ef;strokeColor=#001DBC;" edge="1" parent="1" source="bs5Z2jcvvp319eglyJQV-1" target="bs5Z2jcvvp319eglyJQV-2">
          <mxGeometry relative="1" as="geometry" />
        </mxCell>
        <mxCell id="bs5Z2jcvvp319eglyJQV-35" value="token" style="edgeLabel;html=1;align=center;verticalAlign=middle;resizable=0;points=[];" vertex="1" connectable="0" parent="bs5Z2jcvvp319eglyJQV-11">
          <mxGeometry x="-0.075" relative="1" as="geometry">
            <mxPoint as="offset" />
          </mxGeometry>
        </mxCell>
        <mxCell id="bs5Z2jcvvp319eglyJQV-1" value="" style="pointerEvents=1;verticalLabelPosition=bottom;shadow=0;dashed=0;align=center;html=1;verticalAlign=top;shape=mxgraph.electrical.electro-mechanical.two_way_contact;" vertex="1" parent="1">
          <mxGeometry x="440" y="400" width="50" height="17.5" as="geometry" />
        </mxCell>
        <mxCell id="bs5Z2jcvvp319eglyJQV-19" style="edgeStyle=orthogonalEdgeStyle;rounded=0;orthogonalLoop=1;jettySize=auto;html=1;exitX=0;exitY=0.5;exitDx=0;exitDy=0;fillColor=#0050ef;strokeColor=#001DBC;strokeWidth=2;" edge="1" parent="1" source="bs5Z2jcvvp319eglyJQV-2">
          <mxGeometry relative="1" as="geometry">
            <mxPoint x="810" y="550" as="targetPoint" />
          </mxGeometry>
        </mxCell>
        <mxCell id="bs5Z2jcvvp319eglyJQV-2" value="" style="shape=trapezoid;perimeter=trapezoidPerimeter;whiteSpace=wrap;html=1;fixedSize=1;rotation=-180;fillColor=#fff2cc;strokeColor=#d6b656;" vertex="1" parent="1">
          <mxGeometry x="600" y="320" width="130" height="80" as="geometry" />
        </mxCell>
        <mxCell id="bs5Z2jcvvp319eglyJQV-3" value="令牌" style="rounded=0;whiteSpace=wrap;html=1;fillColor=#6a00ff;strokeColor=#3700CC;fontColor=#ffffff;" vertex="1" parent="1">
          <mxGeometry x="645" y="352.5" width="40" height="15" as="geometry" />
        </mxCell>
        <mxCell id="bs5Z2jcvvp319eglyJQV-18" style="edgeStyle=orthogonalEdgeStyle;rounded=0;orthogonalLoop=1;jettySize=auto;html=1;exitX=0;exitY=0.5;exitDx=0;exitDy=0;strokeWidth=2;fillColor=#0050ef;strokeColor=#001DBC;" edge="1" parent="1" source="bs5Z2jcvvp319eglyJQV-9" target="bs5Z2jcvvp319eglyJQV-17">
          <mxGeometry relative="1" as="geometry" />
        </mxCell>
        <mxCell id="bs5Z2jcvvp319eglyJQV-9" value="" style="shape=trapezoid;perimeter=trapezoidPerimeter;whiteSpace=wrap;html=1;fixedSize=1;rotation=-180;fillColor=#fff2cc;strokeColor=#d6b656;" vertex="1" parent="1">
          <mxGeometry x="605" y="430" width="130" height="80" as="geometry" />
        </mxCell>
        <mxCell id="bs5Z2jcvvp319eglyJQV-13" style="edgeStyle=orthogonalEdgeStyle;rounded=0;orthogonalLoop=1;jettySize=auto;html=1;entryX=0;entryY=0.5;entryDx=0;entryDy=0;entryPerimeter=0;exitX=1;exitY=0.8;exitDx=0;exitDy=0;exitPerimeter=0;fillColor=#0050ef;strokeColor=#001DBC;strokeWidth=2;" edge="1" parent="1" target="bs5Z2jcvvp319eglyJQV-1">
          <mxGeometry relative="1" as="geometry">
            <mxPoint x="270" y="406" as="sourcePoint" />
            <Array as="points">
              <mxPoint x="270" y="409" />
            </Array>
          </mxGeometry>
        </mxCell>
        <mxCell id="bs5Z2jcvvp319eglyJQV-14" value="" style="pointerEvents=1;verticalLabelPosition=bottom;shadow=0;dashed=0;align=center;html=1;verticalAlign=top;shape=mxgraph.electrical.electro-mechanical.simple_switch;" vertex="1" parent="1">
          <mxGeometry x="200" y="390" width="75" height="19" as="geometry" />
        </mxCell>
        <mxCell id="bs5Z2jcvvp319eglyJQV-16" style="edgeStyle=orthogonalEdgeStyle;rounded=0;orthogonalLoop=1;jettySize=auto;html=1;strokeWidth=2;fillColor=#0050ef;strokeColor=#001DBC;" edge="1" parent="1" source="bs5Z2jcvvp319eglyJQV-15">
          <mxGeometry relative="1" as="geometry">
            <mxPoint x="750" y="580" as="targetPoint" />
          </mxGeometry>
        </mxCell>
        <mxCell id="bs5Z2jcvvp319eglyJQV-42" value="Y" style="edgeLabel;html=1;align=center;verticalAlign=middle;resizable=0;points=[];" vertex="1" connectable="0" parent="bs5Z2jcvvp319eglyJQV-16">
          <mxGeometry x="-0.6537" relative="1" as="geometry">
            <mxPoint as="offset" />
          </mxGeometry>
        </mxCell>
        <mxCell id="bs5Z2jcvvp319eglyJQV-22" style="edgeStyle=orthogonalEdgeStyle;rounded=0;orthogonalLoop=1;jettySize=auto;html=1;entryX=0.5;entryY=1;entryDx=0;entryDy=0;strokeWidth=2;fillColor=#0050ef;strokeColor=#001DBC;" edge="1" parent="1" source="bs5Z2jcvvp319eglyJQV-15" target="bs5Z2jcvvp319eglyJQV-21">
          <mxGeometry relative="1" as="geometry">
            <Array as="points">
              <mxPoint x="300" y="630" />
              <mxPoint x="970" y="630" />
            </Array>
          </mxGeometry>
        </mxCell>
        <mxCell id="bs5Z2jcvvp319eglyJQV-43" value="N" style="edgeLabel;html=1;align=center;verticalAlign=middle;resizable=0;points=[];" vertex="1" connectable="0" parent="bs5Z2jcvvp319eglyJQV-22">
          <mxGeometry x="-0.7543" y="2" relative="1" as="geometry">
            <mxPoint as="offset" />
          </mxGeometry>
        </mxCell>
        <mxCell id="bs5Z2jcvvp319eglyJQV-15" value="限流？" style="rhombus;whiteSpace=wrap;html=1;fillColor=#d5e8d4;strokeColor=#82b366;" vertex="1" parent="1">
          <mxGeometry x="260" y="540" width="80" height="80" as="geometry" />
        </mxCell>
        <mxCell id="bs5Z2jcvvp319eglyJQV-20" style="edgeStyle=orthogonalEdgeStyle;rounded=0;orthogonalLoop=1;jettySize=auto;html=1;exitX=1;exitY=0.5;exitDx=0;exitDy=0;fillColor=#0050ef;strokeColor=#001DBC;strokeWidth=2;" edge="1" parent="1" source="bs5Z2jcvvp319eglyJQV-17">
          <mxGeometry relative="1" as="geometry">
            <mxPoint x="910" y="580" as="targetPoint" />
          </mxGeometry>
        </mxCell>
        <mxCell id="bs5Z2jcvvp319eglyJQV-17" value="获取令牌" style="rounded=0;whiteSpace=wrap;html=1;fillColor=#d5e8d4;strokeColor=#82b366;" vertex="1" parent="1">
          <mxGeometry x="750" y="550" width="120" height="60" as="geometry" />
        </mxCell>
        <mxCell id="bs5Z2jcvvp319eglyJQV-23" style="edgeStyle=orthogonalEdgeStyle;rounded=0;orthogonalLoop=1;jettySize=auto;html=1;strokeWidth=2;fillColor=#0050ef;strokeColor=#001DBC;" edge="1" parent="1" source="bs5Z2jcvvp319eglyJQV-21">
          <mxGeometry relative="1" as="geometry">
            <mxPoint x="1080" y="580" as="targetPoint" />
          </mxGeometry>
        </mxCell>
        <mxCell id="bs5Z2jcvvp319eglyJQV-21" value="请求处理" style="rounded=0;whiteSpace=wrap;html=1;fillColor=#d5e8d4;strokeColor=#82b366;" vertex="1" parent="1">
          <mxGeometry x="910" y="550" width="120" height="60" as="geometry" />
        </mxCell>
        <mxCell id="bs5Z2jcvvp319eglyJQV-28" value="" style="endArrow=classic;html=1;entryX=0;entryY=0.5;entryDx=0;entryDy=0;strokeWidth=2;fillColor=#6a00ff;strokeColor=#3700CC;" edge="1" parent="1" target="bs5Z2jcvvp319eglyJQV-15">
          <mxGeometry width="50" height="50" relative="1" as="geometry">
            <mxPoint x="180" y="580" as="sourcePoint" />
            <mxPoint x="260" y="580" as="targetPoint" />
          </mxGeometry>
        </mxCell>
        <mxCell id="bs5Z2jcvvp319eglyJQV-41" value="请求" style="edgeLabel;html=1;align=center;verticalAlign=middle;resizable=0;points=[];" vertex="1" connectable="0" parent="bs5Z2jcvvp319eglyJQV-28">
          <mxGeometry x="-0.35" y="1" relative="1" as="geometry">
            <mxPoint as="offset" />
          </mxGeometry>
        </mxCell>
        <mxCell id="bs5Z2jcvvp319eglyJQV-29" value="令牌桶" style="text;html=1;align=center;verticalAlign=middle;resizable=0;points=[];autosize=1;" vertex="1" parent="1">
          <mxGeometry x="640" y="290" width="50" height="20" as="geometry" />
        </mxCell>
        <mxCell id="bs5Z2jcvvp319eglyJQV-31" value="令牌" style="rounded=0;whiteSpace=wrap;html=1;fillColor=#6a00ff;strokeColor=#3700CC;fontColor=#ffffff;" vertex="1" parent="1">
          <mxGeometry x="650" y="460" width="40" height="15" as="geometry" />
        </mxCell>
        <mxCell id="bs5Z2jcvvp319eglyJQV-32" value="令牌" style="rounded=0;whiteSpace=wrap;html=1;fillColor=#6a00ff;strokeColor=#3700CC;fontColor=#ffffff;" vertex="1" parent="1">
          <mxGeometry x="660" y="470" width="40" height="15" as="geometry" />
        </mxCell>
        <mxCell id="bs5Z2jcvvp319eglyJQV-34" value="令牌" style="rounded=0;whiteSpace=wrap;html=1;fillColor=#6a00ff;strokeColor=#3700CC;fontColor=#ffffff;" vertex="1" parent="1">
          <mxGeometry x="655" y="362.5" width="40" height="15" as="geometry" />
        </mxCell>
        <mxCell id="bs5Z2jcvvp319eglyJQV-37" value="限流开关" style="text;html=1;align=center;verticalAlign=middle;resizable=0;points=[];autosize=1;" vertex="1" parent="1">
          <mxGeometry x="215" y="362.5" width="60" height="20" as="geometry" />
        </mxCell>
        <mxCell id="bs5Z2jcvvp319eglyJQV-38" value="选择器" style="text;html=1;align=center;verticalAlign=middle;resizable=0;points=[];autosize=1;" vertex="1" parent="1">
          <mxGeometry x="430" y="370" width="50" height="20" as="geometry" />
        </mxCell>
        <mxCell id="bs5Z2jcvvp319eglyJQV-40" value="令牌" style="rounded=0;whiteSpace=wrap;html=1;fillColor=#6a00ff;strokeColor=#3700CC;fontColor=#ffffff;" vertex="1" parent="1">
          <mxGeometry x="790" y="495" width="40" height="15" as="geometry" />
        </mxCell>
      </root>
    </mxGraphModel>
  </diagram>
</mxfile>
